<svg id="Layer_1" data-name="Layer 1" xmlns="http://www.w3.org/2000/svg" viewBox="0 0 46.81 23.74"><title>Artboard 1</title><path d="M30.72,16.83c.65-.41,1.38-.08,2.06-.25.34-.09.59.13.51.53a8,8,0,0,1-.95,3.05,7,7,0,0,0-1.07,2.59c-.06.33-.39.85,0,1s.44-.48.57-.79c.71-1.77,1.41-3.56,2.12-5.33A2.63,2.63,0,0,1,35.58,16a17.45,17.45,0,0,0,5.83-3.5c.15-.14.34-.36.62-.09-.14.66-.85.9-1.12,1.57a4.75,4.75,0,0,1,2.54-.41c.05,0,.12,0,.18-.08a.41.41,0,0,1,.46.05c.32.25.41,0,.48-.25s0-.49-.28-.55-.41.05-.6,0-.77,0-.9-.49-.62-1,0-1.53A5.43,5.43,0,0,0,44.21,8a7.73,7.73,0,0,0,.35-4.36C43.82,1,41.9-.23,39.5,0a11,11,0,0,0-6,2.83,11.69,11.69,0,0,0-3,3.09.61.61,0,0,1-.22.21,4.25,4.25,0,0,0-1.33,1.62,19.39,19.39,0,0,1-1.18,1.87,3.9,3.9,0,0,0-.75,2,1.31,1.31,0,0,0,.92,1.5,5.41,5.41,0,0,0,3,.32l1.67-.25a4.39,4.39,0,0,0-1.21,2.37c0,.16-.13.38-.32.32M30,13a5.2,5.2,0,0,1-1.6-.18c-.9-.28-1.3-.89-.84-1.67A20.88,20.88,0,0,1,30.14,7a2.75,2.75,0,0,0,.42-.44,13.12,13.12,0,0,1,3.2-3.31A10.23,10.23,0,0,1,40.11.59,2.84,2.84,0,0,1,41.65,1c.55.33.65.54.28,1C40.8,3.56,40,5.32,38.82,6.83a15.66,15.66,0,0,0-1.75,3,15,15,0,0,1-3.84,2.54A7,7,0,0,1,30,13Zm4.08.54c-.12.59-.24,1.18-.37,1.77-.09.43-.26.77-.78.74a1.16,1.16,0,0,1-1-1,.57.57,0,0,1,.16-.46c.47-.47.95-.94,1.43-1.4A.36.36,0,0,1,34,13C34.16,13.15,34.11,13.33,34.08,13.49Zm0,2.41c-.17-1.64,1.2-4.14,2.49-4.62C35.62,12.69,35.37,14.5,34.12,15.9ZM41,11.82c-.64.43-1.3.82-2,1.2s-1.15.57-1.31,1.28c0,.21-.25.31-.43.39l-2,.8a10.52,10.52,0,0,1,1.27-2.85,10.14,10.14,0,0,0,.71-1.1,1.81,1.81,0,0,1,1.32-1.1,3.62,3.62,0,0,1,2.45.19C41.6,10.9,41.56,11.43,41,11.82Zm.7-1.59a3.83,3.83,0,0,0-2.81-.47c-.59.11-.69,0-.45-.56A8.79,8.79,0,0,1,39.05,8c1.08-1.66,2-3.39,3-5.1.21-.37.4-.9.86-.87s.62.56.79,1a5.46,5.46,0,0,1,.42,2.26A9.14,9.14,0,0,1,42.66,10C42.39,10.38,42.18,10.53,41.69,10.23Z"/><path d="M46.81,14.21a.2.2,0,0,1-.14.22.54.54,0,0,1-.6-.5.3.3,0,0,1,.13-.23C46.38,13.61,46.78,13.94,46.81,14.21Z"/><path d="M25.79,12.94c.43-.32.89-.6,1.33-.91.74-.52.76-.57.61-1.67a17.85,17.85,0,0,0-1.8,1.27c-.42.28-.83.59-1.39.35-.39-.17-.6.2-.89.35s-.44.22-.66.06-.18-.41-.16-.65c0-.52.46-.87.76-1.5a9.25,9.25,0,0,0-1.8,1.48c-.52.43-1,.93-1.49,1.35-.3.24-.74.63-1.06.33s.15-.68.37-1c.46-.62.94-1.22,1.39-1.85a2,2,0,0,0,.54-1.27A5.22,5.22,0,0,0,20,10.42c-.84.91-1.68,1.83-2.54,2.73-.58.61-1.27,1.1-1.79,1.76a1.81,1.81,0,0,1-.38.33c-.17.12-.37.23-.55.1s-.13-.44,0-.63A16,16,0,0,1,17,11.88c1-.9,1.7-2,2.57-3a2.78,2.78,0,0,0,.72-1.61,2.62,2.62,0,0,0-1.66,1.11A63.46,63.46,0,0,1,12,16.31c-.85.86-1.7,1.71-2.59,2.52-.34.31-.82.83-1.19.52s.15-.81.41-1.15S9,17.35,9.26,17c1.06-1.39,2.07-2.82,3.2-4.14a27.09,27.09,0,0,1,5-4.47,11.26,11.26,0,0,0,4-6c.28-.85-.12-1.2-1-1a12.29,12.29,0,0,0-2.16.84,38.92,38.92,0,0,0-8.12,5,32.6,32.6,0,0,0-7.31,7.84A18.22,18.22,0,0,0,.77,19.42,2.25,2.25,0,0,0,.6,20.7c.09.31.28.45.6.32a3.81,3.81,0,0,0,.93-.59A33.06,33.06,0,0,0,4.8,18c.13-.13.23-.34.55-.32A10.81,10.81,0,0,1,3,20.26a5.42,5.42,0,0,1-1.8,1.27c-.31.11-.63.32-.95.07a.93.93,0,0,1-.24-1c.12-.56.23-1.12.4-1.66a19.38,19.38,0,0,1,3.09-5.74A36.8,36.8,0,0,1,9.63,7.06a41.5,41.5,0,0,1,9.62-5.83A4.27,4.27,0,0,1,21.11.82c.65,0,.91.28.93.93a4,4,0,0,1-.53,1.93c-.45.9-.93,1.78-1.37,2.61,0,.19.09.25.19.27.72.18.82.31.56.92a10.42,10.42,0,0,1-1.53,2.59l-.6.71a2.17,2.17,0,0,0,1-.75,7,7,0,0,1,1.47-1.22c.27-.16.56-.3.84-.07s.14.54,0,.82a15.23,15.23,0,0,1-1.44,2.18c-.11.16-.3.27-.28.58a3.29,3.29,0,0,0,.9-.77,41.63,41.63,0,0,1,3.22-3c.13-.1.25-.22.38-.33s.36-.27.55-.14.14.44,0,.63q-.61.92-1.27,1.81a3.43,3.43,0,0,0-.68,1.21,2.85,2.85,0,0,0,1.23-1c.47-.57.93-1.15,1.41-1.71a3.64,3.64,0,0,1,.6-.53.3.3,0,0,1,.28,0c.14.09.09.25,0,.35s-.35.4-.54.6a10.82,10.82,0,0,0-1.38,1.83c.37.24.59.05.8-.09a9.2,9.2,0,0,0,2.13-2,4.78,4.78,0,0,1,2.14-1.79c-.05.83-.71,1.14-1,1.67a7.17,7.17,0,0,0-.89,1.61,1,1,0,0,0,1-.31m-20.25,8a59.43,59.43,0,0,0,8.09-8.92C13.66,11.59,11.33,14.89,9.09,18.28Zm9.22-6.95-1.18,1.26.15.13A3.31,3.31,0,0,0,18.31,11.33Z"/></svg>